<svg id="_Icons_Close_Copy_3" data-name="_Icons / Close Copy 3" xmlns="http://www.w3.org/2000/svg" xmlns:xlink="http://www.w3.org/1999/xlink" width="16" height="16" viewBox="0 0 16 16">
  <defs>
    <clipPath id="clip-path">
      <path id="Close" d="M.323,15.677a1.105,1.105,0,0,0,1.562,0L8,9.562l6.115,6.115a1.1,1.1,0,0,0,1.562-1.562L9.562,8l6.115-6.115A1.1,1.1,0,1,0,14.115.323L8,6.438,1.885.323A1.1,1.1,0,0,0,.323,1.885L6.438,8,.323,14.115A1.105,1.105,0,0,0,.323,15.677Z"/>
    </clipPath>
  </defs>
  <path id="Close-2" data-name="Close" d="M.323,15.677a1.105,1.105,0,0,0,1.562,0L8,9.562l6.115,6.115a1.1,1.1,0,0,0,1.562-1.562L9.562,8l6.115-6.115A1.1,1.1,0,1,0,14.115.323L8,6.438,1.885.323A1.1,1.1,0,0,0,.323,1.885L6.438,8,.323,14.115A1.105,1.105,0,0,0,.323,15.677Z"/>
</svg>
